Coordinates
version=1
nRows=11
nColumns=42
inDegrees=yes

Units are S.I. units (second, meters, Newtons, ...)
If the header above contains a line with 'inDegrees', this indicates whether rotational values are in degrees (yes) or radians (no).

endheader
time	pelvis_tilt	pelvis_list	pelvis_rotation	pelvis_tx	pelvis_ty	pelvis_tz	hip_flexion_r	hip_adduction_r	hip_rotation_r	knee_angle_r	knee_adduction_r	knee_angle_r_beta	ankle_angle_r	subtalar_angle_r	mtp_angle_r	hip_flexion_l	hip_adduction_l	hip_rotation_l	knee_angle_l	knee_adduction_l	knee_angle_l_beta	ankle_angle_l	subtalar_angle_l	mtp_angle_l	lumbar_extension	lumbar_bending	lumbar_rotation	arm_flex_r	arm_add_r	arm_rot_r	elbow_flex_r	pro_sup_r	wrist_flex_r	wrist_dev_r	arm_flex_l	arm_add_l	arm_rot_l	elbow_flex_l	pro_sup_l	wrist_flex_l	wrist_dev_l
      0.37000000	      2.73857380	     -4.46948653	     -1.41898163	     -0.55323852	      0.95727788	     -0.22544901	    -16.60426228	      7.64152487	      1.35520700	      6.24023265	     -0.87056461	      0.10891261	     15.05808664	     -2.61022495	     -8.01008625	     22.65344044	     -6.04854489	    -12.85822033	      7.61548347	      0.51428250	      0.13291526	      2.97970483	      4.46155884	     -8.01008625	    -15.64530541	      4.92929834	      8.80728144	      0.73392730	    -12.23088851	      2.47958676	     45.52916833	     90.00000001	      0.00000000	      0.00000000	     -3.91624743	     -9.44139305	     -3.01812409	     33.90183141	     90.00000001	      0.00000000	      0.00000000
      0.38000000	      2.51581000	     -4.72158160	     -1.55144918	     -0.53891381	      0.95396324	     -0.22480736	    -17.25770912	      7.92287915	      1.43430909	      6.44450308	     -0.94174832	      0.11247780	     15.51241135	     -2.58299082	     -8.00327367	     23.04528484	     -6.29387722	    -12.46211293	      6.43062675	      0.66741480	      0.11223561	      2.96672345	      5.69452261	     -8.00327367	    -15.40392273	      4.99593922	      9.08231367	      0.96496196	    -12.18747244	      2.50584740	     45.89582275	     90.00000001	      0.00000000	      0.00000000	     -4.01127423	     -9.48235818	     -3.26890369	     32.54432226	     90.00000001	      0.00000000	      0.00000000
      0.39000000	      2.55839395	     -4.74954766	     -1.76715578	     -0.52427958	      0.95120252	     -0.22441280	    -18.16222721	      7.83639458	      1.50119965	      6.73664410	     -0.88129442	      0.11757662	     15.72635341	     -2.49478966	     -7.98913252	     23.11097864	     -6.26061626	    -12.34491883	      5.72672958	      0.61962794	      0.09995029	      3.10094361	      6.79215023	     -7.98913252	    -15.45713799	      4.80943831	      9.39930848	      1.15597276	    -12.09888118	      2.33826493	     46.24769799	     90.00000001	      0.00000000	      0.00000000	     -3.93453814	     -9.33188215	     -4.28418656	     30.96184321	     90.00000001	      0.00000000	      0.00000000
      0.40000000	      2.58894425	     -4.64264266	     -2.00533460	     -0.50948621	      0.94859908	     -0.22396887	    -18.96878686	      7.62568764	      1.55815918	      7.20811707	     -0.90032436	      0.12580538	     16.05255404	     -2.38173154	     -7.96650679	     23.21987574	     -6.10355015	    -12.24438965	      5.60342638	      0.52423752	      0.09779824	      3.14236661	      7.43169287	     -7.96650679	    -15.47913434	      4.43614953	      9.63429015	      1.38652076	    -11.93135345	      2.25593848	     46.36112242	     90.00000001	      0.00000000	      0.00000000	     -3.90475085	     -9.21756766	     -5.45679844	     29.49964040	     90.00000001	      0.00000000	      0.00000000
      0.41000000	      2.53793932	     -4.52288875	     -2.20240242	     -0.49456411	      0.94613413	     -0.22358058	    -19.57879114	      7.40238302	      1.55957568	      7.89128409	     -0.90402430	      0.13772889	     16.14128015	     -2.37782909	     -7.95746785	     23.43230824	     -5.89302426	    -11.91484240	      5.97758378	      0.35535304	      0.10432852	      3.10612202	      7.45925206	     -7.95746785	    -15.39626092	      4.04839800	      9.82913942	      1.57092910	    -11.73734292	      2.13844220	     46.36941441	     90.00000001	      0.00000000	      0.00000000	     -3.87314080	     -9.27368146	     -5.88034515	     27.97311256	     90.00000001	      0.00000000	      0.00000000
      0.42000000	      2.55584251	     -4.31383976	     -2.37905500	     -0.47956586	      0.94403619	     -0.22329417	    -20.17309617	      7.14396930	      1.72124197	      8.75336092	     -1.05556781	      0.15277497	     16.04970924	     -2.36752321	     -7.95244898	     23.58292033	     -5.54369089	    -11.51545425	      6.80002991	      0.08012340	      0.11868291	      2.99169493	      7.22779156	     -7.95244898	    -15.40800739	      3.55392130	      9.91245741	      1.76631180	    -11.50464584	      2.03760906	     46.31021252	     90.00000001	      0.00000000	      0.00000000	     -3.98985030	     -9.36859927	     -6.20458635	     26.88114601	     90.00000001	      0.00000000	      0.00000000
      0.43000000	      2.65211540	     -3.92439556	     -2.57189987	     -0.46416147	      0.94238480	     -0.22322019	    -20.68448367	      6.57463220	      1.60931693	      9.92731029	     -1.02490130	      0.17326425	     15.77281082	     -2.55625615	     -7.94596788	     23.66434386	     -4.98857183	    -11.40067028	      8.06620737	     -0.27660784	      0.14078188	      2.69610487	      6.52712563	     -7.94596788	    -15.44833100	      2.86017602	      9.98826685	      1.90961616	    -11.18159486	      1.80385402	     46.03572542	     90.00000001	      0.00000000	      0.00000000	     -3.88526749	     -9.38174318	     -6.82226121	     25.28142304	     90.00000001	      0.00000000	      0.00000000
      0.44000000	      2.64622712	     -3.26819275	     -2.87409146	     -0.44853035	      0.94104078	     -0.22330301	    -20.80932144	      5.65728784	      1.24331935	     11.59605778	     -1.01212347	      0.20238939	     15.57470000	     -2.23808578	     -7.91685797	     23.62227946	     -4.12229499	    -10.95312794	      9.20198761	     -0.65791390	      0.16060498	      1.82805495	      5.11075470	     -7.91685797	    -15.34509697	      1.85191330	     10.01876604	      1.97288088	    -10.77840607	      1.48597580	     45.70009414	     90.00000001	      0.00000000	      0.00000000	     -3.64323629	     -9.04540153	     -9.92338892	     23.66112866	     90.00000001	      0.00000000	      0.00000000
      0.45000000	      2.82024653	     -2.79466395	     -2.96669939	     -0.43263849	      0.94020028	     -0.22334422	    -21.14103408	      5.05241438	      1.13814438	     13.23423973	     -1.05978194	      0.23098106	     14.68477069	     -2.57823819	     -7.91029304	     23.59315660	     -3.45256162	    -10.80147772	     10.95800112	     -1.02320967	      0.19125320	      1.30398175	      4.30278559	     -7.91029304	    -15.43303131	      1.05010995	      9.88418184	      2.02684905	    -10.39810089	      1.34071431	     45.28254603	     90.00000001	      0.00000000	      0.00000000	     -3.74333838	     -9.20051446	    -10.17864536	     22.54035263	     90.00000001	      0.00000000	      0.00000000
      0.46000000	      2.72397387	     -2.06815061	     -3.12303719	     -0.41671139	      0.93948637	     -0.22371622	    -20.81151965	      4.11764508	      0.77951348	     15.51733930	     -1.06923249	      0.27082866	     13.76301563	     -2.90425377	     -7.87958867	     23.64111092	     -2.45765346	    -10.17756951	     12.44374301	     -1.36735743	      0.21718429	      0.10922260	      2.46471041	     -7.87958867	    -15.19637714	     -0.00749129	      9.68976875	      2.00289129	     -9.94221063	      1.01033616	     44.75178525	     90.00000001	      0.00000000	      0.00000000	     -3.62155200	     -9.06962290	    -12.51809946	     21.20129324	     90.00000001	      0.00000000	      0.00000000
      0.47000000	      2.98001652	     -1.46084632	     -3.14294953	     -0.40038296	      0.93959909	     -0.22401524	    -20.84026611	      3.36350983	      0.52149540	     17.77901480	     -1.10628141	      0.31030235	     12.08666693	     -3.57810969	     -7.87272315	     23.41901619	     -1.61040622	    -10.09389029	     14.28378316	     -1.74204012	      0.24929905	     -0.53176198	      1.68546266	     -7.87272315	    -15.33480408	     -0.95257874	      9.38942823	      1.93766487	     -9.52907942	      0.85891715	     44.18928636	     90.00000001	      0.00000000	      0.00000000	     -3.77684536	     -9.25116727	    -12.78240156	     20.31363333	     90.00000001	      0.00000000	      0.00000000
